<svg width="108" height="31" viewBox="0 0 108 31" fill="none" xmlns="http://www.w3.org/2000/svg">
<path d="M42.0289 3.135V-3.57628e-07L46.1839 -3.57628e-07V3.135L42.0289 3.135ZM42.1189 24V6L46.0939 6V24H42.1189ZM49.033 24V6H53.113V8.13H53.848C53.988 7.29 54.288 6.71 54.748 6.39C55.218 6.06 55.833 5.895 56.593 5.895C56.833 5.895 57.073 5.905 57.313 5.925C57.563 5.945 57.768 5.96 57.928 5.97V9H56.638C55.618 9 54.813 9.145 54.223 9.435C53.643 9.725 53.273 10.235 53.113 10.965V24L49.033 24ZM61.4249 30.285C61.0849 30.285 60.7099 30.265 60.2999 30.225C59.8899 30.185 59.4999 30.135 59.1299 30.075V27.12C59.4199 27.14 59.7949 27.155 60.2549 27.165C60.7249 27.185 61.1149 27.195 61.4249 27.195C62.2749 27.195 62.8649 27.075 63.1949 26.835C63.5349 26.605 63.7499 26.2 63.8399 25.62L64.0949 24H61.8749L58.6499 6H62.7599L63.6449 14.265L64.3949 21.075H65.4749L66.0899 14.265L66.9299 6L71.0399 6L67.8749 25.305C67.6949 26.385 67.3999 27.295 66.9899 28.035C66.5799 28.775 65.9399 29.335 65.0699 29.715C64.1999 30.095 62.9849 30.285 61.4249 30.285ZM75.8068 24.225C74.4668 24.225 73.4668 23.91 72.8068 23.28C72.1568 22.65 71.7668 21.585 71.6368 20.085C71.6268 19.895 71.6218 19.67 71.6218 19.41C71.6218 19.14 71.6268 18.915 71.6368 18.735C71.6968 17.945 71.8768 17.265 72.1768 16.695C72.4768 16.115 72.9518 15.605 73.6018 15.165C74.2518 14.725 75.1218 14.305 76.2118 13.905C76.7718 13.705 77.3168 13.53 77.8468 13.38C78.3868 13.22 78.9818 13.055 79.6318 12.885V10.335C79.6318 9.765 79.4868 9.35 79.1968 9.09C78.9068 8.83 78.4418 8.7 77.8018 8.7C77.2418 8.7 76.8168 8.81 76.5268 9.03C76.2368 9.25 76.0768 9.62 76.0468 10.14C76.0368 10.3 76.0268 10.575 76.0168 10.965C76.0168 11.345 76.0168 11.72 76.0168 12.09C76.0268 12.45 76.0368 12.675 76.0468 12.765H72.2068C72.1968 12.565 72.1868 12.255 72.1768 11.835C72.1668 11.415 72.1668 11 72.1768 10.59C72.2168 9.47 72.4218 8.55 72.7918 7.83C73.1718 7.11 73.7718 6.58 74.5918 6.24C75.4118 5.89 76.5268 5.715 77.9368 5.715C79.3668 5.715 80.4868 5.905 81.2968 6.285C82.1068 6.655 82.6818 7.245 83.0218 8.055C83.3618 8.865 83.5318 9.92 83.5318 11.22L83.5018 24H79.5568V22.125H78.9568C78.6168 22.835 78.2218 23.365 77.7718 23.715C77.3218 24.055 76.6668 24.225 75.8068 24.225ZM77.3818 21.375C77.8618 21.375 78.2968 21.255 78.6868 21.015C79.0768 20.775 79.3768 20.445 79.5868 20.025L79.6168 15.54C79.2168 15.64 78.8068 15.755 78.3868 15.885C77.9768 16.005 77.5768 16.155 77.1868 16.335C76.5468 16.615 76.1318 16.965 75.9418 17.385C75.7618 17.805 75.6568 18.255 75.6268 18.735C75.6168 18.995 75.6118 19.185 75.6118 19.305C75.6118 19.425 75.6168 19.59 75.6268 19.8C75.6768 20.3 75.8468 20.69 76.1368 20.97C76.4368 21.24 76.8518 21.375 77.3818 21.375ZM86.4158 24V6L90.3908 6V7.875H91.1708C91.6008 7.175 92.0658 6.64 92.5658 6.27C93.0658 5.9 93.7758 5.715 94.6958 5.715C95.9858 5.715 96.9708 6.085 97.6508 6.825C98.3408 7.555 98.6908 8.77 98.7008 10.47V24L94.7258 24V10.125C94.7258 9.605 94.5808 9.225 94.2908 8.985C94.0008 8.745 93.5808 8.625 93.0308 8.625C92.5408 8.625 92.0258 8.755 91.4858 9.015C90.9558 9.265 90.5908 9.605 90.3908 10.035V24H86.4158ZM101.472 3.135V-3.57628e-07L105.627 -3.57628e-07V3.135L101.472 3.135ZM101.562 24V6L105.537 6V24H101.562Z" fill="white"/>
<path d="M28.5872 24.4922L28.5872 0.492187L34.3322 0.492187C36.4122 0.492187 37.9272 0.907187 38.8772 1.73719C39.8272 2.56719 40.3022 3.94719 40.3022 5.87719C40.3022 6.33719 40.3022 6.75719 40.3022 7.13719C40.3022 7.50719 40.2922 7.87719 40.2722 8.24719C40.2122 9.27719 39.9822 10.0972 39.5822 10.7072C39.1922 11.3072 38.5722 11.7422 37.7222 12.0122V12.6722C38.6022 12.9422 39.2422 13.3872 39.6422 14.0072C40.0522 14.6172 40.2772 15.4522 40.3172 16.5122C40.3472 16.9822 40.3572 17.4122 40.3472 17.8022C40.3472 18.1922 40.3372 18.6272 40.3172 19.1072C40.2372 21.0272 39.7372 22.4072 38.8172 23.2472C37.9072 24.0772 36.4172 24.4922 34.3472 24.4922H28.5872ZM32.5622 20.9822H34.3472C35.0172 20.9822 35.5172 20.8222 35.8472 20.5022C36.1772 20.1822 36.3472 19.7022 36.3572 19.0622C36.3572 18.6422 36.3572 18.2472 36.3572 17.8772C36.3572 17.4972 36.3572 17.1022 36.3572 16.6922C36.3472 15.7322 36.1872 15.0572 35.8772 14.6672C35.5772 14.2672 35.0722 14.0672 34.3622 14.0672H32.5622V20.9822ZM32.5622 10.5572H34.3922C35.0322 10.5572 35.5122 10.3522 35.8322 9.94219C36.1622 9.53219 36.3272 8.93219 36.3272 8.14219C36.3372 7.71219 36.3422 7.30219 36.3422 6.91219C36.3422 6.51219 36.3372 6.09719 36.3272 5.66719C36.3272 5.10719 36.1622 4.69219 35.8322 4.42219C35.5022 4.14219 35.0022 4.00219 34.3322 4.00219H32.5622V10.5572Z" fill="#F8B1E2"/>
<path d="M21.6256 24.7772C23.7956 24.7772 25.3406 24.3272 26.2606 23.4272C27.1806 22.5172 27.6806 21.1022 27.7606 19.1822C27.7706 18.8622 27.7806 18.5772 27.7906 18.3272C27.7906 18.0672 27.7856 17.7972 27.7756 17.5172C27.7656 17.2372 27.7456 16.8872 27.7156 16.4672C27.6156 15.4172 27.3606 14.5872 26.9506 13.9772C26.5406 13.3672 25.9256 12.8922 25.1056 12.5522V11.9672C25.6856 11.7672 26.1906 11.4322 26.6206 10.9622C27.0406 10.4922 27.3156 9.89719 27.4456 9.17719C27.4956 8.82719 27.5406 8.45219 27.5806 8.05219C27.6106 7.65219 27.6306 7.25719 27.6406 6.86719C27.6506 6.47719 27.6506 6.12219 27.6406 5.80219C27.5306 3.83219 27.0256 2.40719 26.1256 1.52719C25.2256 0.647187 23.7256 0.207186 21.6256 0.207186C19.5756 0.207186 18.0856 0.642186 17.1556 1.51219C16.2156 2.37219 15.7006 3.80219 15.6106 5.80219C15.5906 6.11219 15.5856 6.47219 15.5956 6.88219C15.6056 7.29219 15.6306 7.70219 15.6706 8.11219C15.7006 8.51219 15.7406 8.86219 15.7906 9.16219C15.9206 9.89219 16.2006 10.4922 16.6306 10.9622C17.0506 11.4322 17.5556 11.7672 18.1456 11.9672V12.5822C17.3956 12.9222 16.8056 13.3972 16.3756 14.0072C15.9456 14.6172 15.6656 15.4222 15.5356 16.4222C15.4756 17.0022 15.4456 17.5072 15.4456 17.9372C15.4456 18.3572 15.4556 18.7722 15.4756 19.1822C15.5756 21.1622 16.0956 22.5922 17.0356 23.4722C17.9656 24.3422 19.4956 24.7772 21.6256 24.7772ZM21.6256 21.5222C20.9056 21.5222 20.3756 21.3722 20.0356 21.0722C19.6956 20.7622 19.5256 20.3072 19.5256 19.7072C19.5156 19.2772 19.5106 18.8622 19.5106 18.4622C19.5106 18.0622 19.5106 17.6622 19.5106 17.2622C19.5106 16.8622 19.5156 16.4522 19.5256 16.0322C19.5256 15.4222 19.6956 14.9622 20.0356 14.6522C20.3756 14.3422 20.9056 14.1872 21.6256 14.1872C22.3356 14.1872 22.8606 14.3422 23.2006 14.6522C23.5406 14.9622 23.7106 15.4222 23.7106 16.0322C23.7206 16.6522 23.7256 17.2672 23.7256 17.8772C23.7256 18.4772 23.7256 19.0822 23.7256 19.6922C23.7156 20.2822 23.5456 20.7372 23.2156 21.0572C22.8756 21.3672 22.3456 21.5222 21.6256 21.5222ZM21.6256 10.3922C20.9256 10.3922 20.4006 10.2372 20.0506 9.92719C19.7006 9.61719 19.5256 9.15719 19.5256 8.54719C19.5256 8.00719 19.5256 7.46219 19.5256 6.91219C19.5156 6.35219 19.5156 5.80719 19.5256 5.27719C19.5256 4.67719 19.6956 4.22719 20.0356 3.92719C20.3656 3.61719 20.8956 3.46219 21.6256 3.46219C22.3256 3.46219 22.8506 3.61719 23.2006 3.92719C23.5406 4.22719 23.7106 4.67719 23.7106 5.27719C23.7206 5.57719 23.7256 5.86219 23.7256 6.13219C23.7256 6.40219 23.7256 6.66719 23.7256 6.92719C23.7256 7.18719 23.7256 7.45219 23.7256 7.72219C23.7256 7.99219 23.7206 8.27219 23.7106 8.56219C23.7106 9.17219 23.5356 9.63219 23.1856 9.94219C22.8356 10.2422 22.3156 10.3922 21.6256 10.3922Z" fill="#F8B1E2"/>
<path d="M7.53 25.0864C6.11 25.0864 4.955 24.9014 4.065 24.5314C3.175 24.1614 2.515 23.5664 2.085 22.7464C1.665 21.9264 1.43 20.8564 1.38 19.5364C1.35 18.5664 1.325 17.5114 1.305 16.3714C1.295 15.2314 1.29 14.0664 1.29 12.8764C1.29 11.6864 1.295 10.5264 1.305 9.39641C1.325 8.26641 1.35 7.23141 1.38 6.29141C1.43 4.92141 1.67 3.8164 2.1 2.9764C2.53 2.1264 3.185 1.5114 4.065 1.1314C4.955 0.741405 6.11 0.546406 7.53 0.546406C9.6 0.546406 11.1 0.971405 12.03 1.8214C12.96 2.6714 13.485 4.08641 13.605 6.06641C13.635 6.60641 13.65 7.20141 13.65 7.85141C13.65 8.50141 13.635 9.10141 13.605 9.65141H9.63C9.66 8.94141 9.675 8.27141 9.675 7.6414C9.675 7.0014 9.66 6.3264 9.63 5.6164C9.59 4.9464 9.41 4.4764 9.09 4.20641C8.78 3.92641 8.26 3.78641 7.53 3.78641C6.77 3.78641 6.225 3.92641 5.895 4.20641C5.575 4.4764 5.395 4.9464 5.355 5.6164C5.295 6.7864 5.25 7.9714 5.22 9.1714C5.2 10.3714 5.19 11.5814 5.19 12.8014C5.19 14.0214 5.2 15.2314 5.22 16.4314C5.25 17.6314 5.295 18.8164 5.355 19.9864C5.395 20.6664 5.575 21.1464 5.895 21.4264C6.225 21.6964 6.77 21.8314 7.53 21.8314C8.33 21.8314 8.9 21.6964 9.24 21.4264C9.58 21.1464 9.775 20.6664 9.825 19.9864C9.845 19.6864 9.855 19.3614 9.855 19.0114C9.865 18.6514 9.865 18.2964 9.855 17.9464C9.855 17.5864 9.845 17.2564 9.825 16.9564H7.995L7.995 13.4914H13.695C13.735 14.4814 13.75 15.5064 13.74 16.5664C13.74 17.6264 13.715 18.6164 13.665 19.5364C13.585 21.5264 13.07 22.9514 12.12 23.8114C11.17 24.6614 9.64 25.0864 7.53 25.0864Z" fill="white"/>
</svg>
